<?xml version="1.0" encoding="UTF-8"?><svg id="_层_1" xmlns="http://www.w3.org/2000/svg" viewBox="0 0 225.6 95.28"><defs><style>.cls-1{fill:#fff;}.cls-2{fill:#ff9427;fill-rule:evenodd;}</style></defs><g><path class="cls-1" d="M101.4,95.16H0V3H101.4V95.16Zm-18.6-12.96V15.96H18.48V82.2H82.8Z"/><path class="cls-1" d="M115.56,53.28h72.84v-5.52h18.48v5.52h18.72v13.2h-18.72v28.8h-33.6v-11.16h15.12v-17.64H115.56v-13.2Zm83.52-25.32H120.24v-10.08h78.84v-5.76H117.84V0h99.72V45.96H117.84v-12.12h81.24v-5.88Zm-46.92,43.44l11.52,23.76h-19.2l-11.52-23.76h19.2Z"/></g><text/><g><path class="cls-2" d="M74.1,41.81c0-12.84-10.36-23.25-23.2-23.25s-23.2,10.41-23.2,23.25c0,0-.78,12.92,23.2,36.9,23.98-23.98,23.2-36.9,23.2-36.9"/><circle class="cls-1" cx="50.9" cy="38.16" r="12.79"/></g></svg>