<svg width="114" height="34" viewBox="0 0 114 34" fill="none" xmlns="http://www.w3.org/2000/svg">
<g clip-path="url(#clip0_858_84738)">
<path d="M26.2201 14.9282L8.14103 0.505226C8.12761 0.491555 8.10079 0.477884 8.08738 0.464213C7.44361 -0.0279462 6.61208 -0.137315 5.86103 0.17712C5.12338 0.477884 4.5735 1.17511 4.43938 1.96803L0.0403185 28.2165C-0.107211 29.0778 0.214671 29.9528 0.871848 30.4996C1.30102 30.8414 1.81067 31.0328 2.33373 31.0328C2.6422 31.0328 2.93726 30.9781 3.23232 30.855C3.28597 30.8277 3.35302 30.8004 3.40667 30.773L25.8446 18.9612C26.542 18.6057 27.0248 17.9085 27.1321 17.1156C27.226 16.2543 26.8773 15.4341 26.2201 14.9282ZM9.8175 21.1622H6.46455L8.1142 10.7996H11.4671L9.8175 21.1622ZM17.5159 20.0412H14.1763L15.4236 11.1823H18.7766L17.5159 20.0412Z" fill="#6F49DE"/>
<path d="M50.5488 23.2547L49.4624 26.7545H35.6349L39.6048 3.13082L43.5478 2.5293L40.0608 23.2547H50.5488V23.2547Z" fill="#6F49DE"/>
<path d="M65.2747 21.7101L68.6277 22.8859C66.2001 25.7705 63.6787 26.8231 60.0173 26.7411C54.7599 26.6317 51.4204 22.4757 52.3324 17.308C53.2578 12.0994 58.0994 7.84766 63.3568 7.84766C68.5874 7.84766 71.8063 12.113 70.8943 17.308C70.8138 17.7865 70.6931 18.2514 70.5456 18.6888H55.9267C55.9804 21.4504 58.3408 23.5284 61.05 23.5284C62.6192 23.5284 64.0811 22.8722 65.2747 21.7101ZM56.5168 15.7359H67.1524C67.0317 13.111 65.3284 11.1834 62.6997 11.1834C60.0575 11.1971 57.6032 13.1247 56.5168 15.7359Z" fill="#6F49DE"/>
<path d="M86.6667 26.8368L87.0959 24.2393C87.0959 24.2393 84.8427 26.7411 80.846 26.7411C75.6557 26.7411 72.182 22.5441 73.0806 17.4311C74.006 12.2224 78.9416 8.09373 84.1453 8.09373C88.142 8.09373 89.5234 10.5955 89.5234 10.5955L89.9258 8.31247L93.3458 7.79297L90.2208 26.3036L86.6667 26.8368ZM81.4764 23.5831C84.6415 23.5831 87.6324 20.8352 88.2225 17.4994C88.8126 14.1364 86.8008 11.3475 83.6357 11.3475C80.4705 11.3475 77.4797 14.1364 76.8761 17.4994C76.286 20.8352 78.3112 23.5831 81.4764 23.5831Z" fill="#6F49DE"/>
<path d="M92.5007 34.0004L96.8193 8.32614L100.347 7.79297L99.9174 10.4041C99.9174 10.4041 102.479 8.05272 106.141 8.05272C111.304 8.05272 114.751 12.2224 113.852 17.3627C112.954 22.5031 108.045 26.6727 102.881 26.6727C99.2066 26.6727 97.4899 24.2803 97.4899 24.2803L95.9744 33.4809L92.5007 34.0004ZM98.8579 17.2944C98.3214 20.3704 100.306 23.3097 103.404 23.3097C106.529 23.3097 109.547 20.3704 110.097 17.2944C110.633 14.2184 108.648 11.2791 105.524 11.2791C102.412 11.2791 99.3944 14.2047 98.8579 17.2944Z" fill="#6F49DE"/>
</g>
<defs>
<clipPath id="clip0_858_84738">
<rect width="114" height="34" fill="white"/>
</clipPath>
</defs>
</svg>
